<svg width="18" height="17" viewBox="0 0 18 17" fill="none" xmlns="http://www.w3.org/2000/svg">
<path d="M11.7648 9.27411C11.7648 10.8035 10.525 12.0433 8.99555 12.0433C7.46614 12.0433 6.22632 10.8035 6.22632 9.27411C6.22632 7.7447 7.46614 6.50488 8.99555 6.50488C10.525 6.50488 11.7648 7.7447 11.7648 9.27411Z" stroke="white" stroke-width="1.5" stroke-linecap="round" stroke-linejoin="round"/>
<path d="M12.4163 3.25566L11.9005 2.25113C11.6652 1.78959 11.1856 1.5 10.6607 1.5H7.33942C6.81454 1.5 6.34395 1.78959 6.0996 2.25113L5.58377 3.25566C5.34847 3.71719 4.86883 4.00679 4.34395 4.00679H3.01363C2.07245 4.00679 1.30322 4.76697 1.30322 5.71719V13.7896C1.30322 14.7308 2.0634 15.5 3.01363 15.5H14.9865C15.9277 15.5 16.6969 14.7398 16.6969 13.7896V5.70815C16.6969 4.76697 15.9367 3.99774 14.9865 3.99774H13.6562C13.1313 3.99774 12.6607 3.70814 12.4163 3.24661V3.25566Z" stroke="white" stroke-width="1.5" stroke-linecap="round" stroke-linejoin="round"/>
</svg>
