<svg width="300" height="191" viewBox="0 0 300 191" fill="none" xmlns="http://www.w3.org/2000/svg">
<path d="M165.35 25.9749V10.018C165.35 9.277 164.962 8.59243 164.327 8.20427L151.269 0.306999C150.598 -0.102333 149.752 -0.102333 149.081 0.306999L136.023 8.20427C135.388 8.58538 135 9.277 135 10.018V25.982C135 26.723 135.388 27.4076 136.023 27.7957L149.081 35.693C149.752 36.1023 150.598 36.1023 151.269 35.693L164.327 27.7957C164.962 27.4146 165.35 26.723 165.35 25.982V25.9749Z" fill="#FFBF2A"/>
<path d="M144.26 18.8636L147.888 22.5L155.871 14.5" stroke="black" stroke-width="2" stroke-linecap="round" stroke-linejoin="round"/>
<path fill-rule="evenodd" clip-rule="evenodd" d="M169 18V27.7471V27.7559C169 28.6611 168.527 29.5068 167.752 29.9727L151.834 39.625C151.016 40.125 149.984 40.125 149.166 39.625L133.248 29.9727C132.473 29.498 132 28.6611 132 27.7559V18H16C7.16333 18 0 25.1631 0 34V175C0 183.837 7.16333 191 16 191H284C292.837 191 300 183.837 300 175V34C300 25.1631 292.837 18 284 18H169Z" fill="black"/>
</svg>
