<svg width="22" height="19" viewBox="0 0 22 19" fill="none" xmlns="http://www.w3.org/2000/svg">
<path d="M14.7341 17.5002V16.2694C14.7341 12.8706 11.9378 10.1153 8.53893 10.1153C5.14011 10.1153 2.34375 12.8706 2.34375 16.2694V17.5002" stroke="white" stroke-width="1.5" stroke-miterlimit="10" stroke-linecap="round" stroke-linejoin="round"/>
<path d="M1.1123 17.5002H20.8876" stroke="white" stroke-width="1.5" stroke-miterlimit="10" stroke-linecap="round" stroke-linejoin="round"/>
<path d="M20.8877 10.1152C20.8877 11.4748 19.7855 12.5769 18.426 12.5769C17.0665 12.5769 15.9644 11.4748 15.9644 10.1152V6.42276H20.8877V10.1152Z" stroke="white" stroke-width="1.5" stroke-miterlimit="10" stroke-linecap="round" stroke-linejoin="round"/>
<path d="M18.4263 17.5002V12.5769" stroke="white" stroke-width="1.5" stroke-miterlimit="10" stroke-linecap="round" stroke-linejoin="round"/>
<path d="M8.5376 8.88465V10.1155" stroke="white" stroke-width="1.5" stroke-miterlimit="10" stroke-linecap="round" stroke-linejoin="round"/>
<path d="M6.07617 7.65405C6.07617 6.97427 6.62726 6.42322 7.307 6.42322H12.2713C12.9511 6.42322 13.5022 5.87218 13.5022 5.19239C13.5022 4.51261 12.9511 3.96156 12.2713 3.96156H9.76866C9.08891 3.96156 8.53783 3.41052 8.53783 2.73073V1.4999" stroke="white" stroke-width="1.5" stroke-miterlimit="10" stroke-linecap="round" stroke-linejoin="round"/>
</svg>
