<svg viewBox="0 0 512 512" xmlns="http://www.w3.org/2000/svg"><g id="Layer_22" data-name="Layer 22"><path d="m57.47 20.46a19 19 0 1 0 -26.73 27l28.59 28.31q-4.68 3.86-9.1 8.09c-20.29 19.57-34.49 44-40 68.85l-.05.23v.18c-6.79 32.55-10.11 66.2-10.18 102.94.06 36.57 3.38 70.2 10.15 102.8v.1l.05.23v.14c5.49 24.8 19.69 49.23 40 68.79s45.26 33 70.38 37.84 85.9 10.44 130.17 10.44h5.23 5c44.66 0 105.65-5.51 130.26-10.41a134.9 134.9 0 0 0 44.51-17.74l43.75 43.29a19 19 0 1 0 26.73-27zm94.21 156.2a17.39 17.39 0 1 1 -17.38 17.39 17.41 17.41 0 0 1 17.38-17.39zm-102.51 181.2q-1.05-3.33-1.8-6.69v-.09c-6.23-30-9.29-61.14-9.34-95 .06-34 3.11-65.15 9.33-95.12v-.06c4.88-22 19.87-43.25 39.24-58.13l41.59 41.15a55.38 55.38 0 1 0 73.89 73.08l59 58.43c-14.73 17.85-29.54 36.83-43.69 56q-11.77-14.43-23.39-27.43c-12.08-13.43-29.92-20.88-50.22-21h-.17c-20.3.08-38.14 7.53-50.26 21-14.54 16.29-29.59 34.64-44.18 53.86zm334.83 70.84c-22.5 4.48-81.09 9.7-122.92 9.7q-2.46 0-4.83 0h-.41c-40.53.43-104.09-4.95-127.85-9.69-21.62-4.21-42.65-17.52-58-35.06 16.89-23 34.72-45.18 51.74-64.23 4.73-5.27 12.77-8.32 22-8.38s17.31 3.11 22 8.33c12.22 13.68 24.81 28.89 37.42 45.21a19 19 0 0 0 30.56-.66c17.23-24.38 35.95-48.91 54.58-71.62l119.39 118.12a92.19 92.19 0 0 1 -23.68 8.28z"/><path d="m501.82 153-.05-.23a.36.36 0 0 1 0-.1c-5.49-24.8-19.69-49.23-40-68.79s-45.26-33-70.38-37.85c-26-5.18-90.75-10.84-135.39-10.41-36.15-.37-85.48 3.28-116.71 7.44l34.81 34.43c26.78-2.41 58.14-4.13 81.7-3.87h.39c40.57-.44 104.18 5 127.86 9.69 37.14 7.23 72.53 41.27 80.58 77.52v.1c6.23 30 9.28 61.12 9.34 95a503.43 503.43 0 0 1 -3 54.85c-18.32-23.62-39.09-49.3-55.43-67.59-15.09-16.84-37.54-26.19-63.28-26.29h-.16a95 95 0 0 0 -31.68 5.36l33 32.67c8.84.22 23.79 2.43 33.86 13.62 22.35 25 53.53 64.7 74.38 92.69-.07.19-.15.37-.22.56l28.8 28.5a125.49 125.49 0 0 0 11.49-31 .59.59 0 0 0 0-.13l.05-.23v-.11c6.76-32.57 10.08-66.22 10.15-102.93s-3.38-70.2-10.15-102.8z"/></g></svg>