<svg width="26" height="27" viewBox="0 0 26 27" fill="none" xmlns="http://www.w3.org/2000/svg">
<path d="M18.2501 14.2842V10.5759C18.2501 7.67649 15.8996 5.32608 13.0002 5.32608C10.1008 5.32608 7.75037 7.67649 7.75037 10.5759V14.2842C7.75037 14.7484 7.56599 15.1934 7.23781 15.5216L6.51299 16.2465C6.18481 16.5747 6.00043 17.0197 6.00043 17.4839V17.634H20V17.4839C20 17.0197 19.8156 16.5747 19.4874 16.2465L18.7626 15.5216C18.4344 15.1934 18.2501 14.7484 18.2501 14.2842Z" stroke="white" stroke-width="1.5" stroke-miterlimit="10" stroke-linecap="round" stroke-linejoin="round"/>
<path d="M14.7503 17.6341V19.3841C14.7503 20.3506 13.9668 21.134 13.0004 21.134C12.0339 21.134 11.2504 20.3506 11.2504 19.3841V17.6341" stroke="white" stroke-width="1.5" stroke-miterlimit="10" stroke-linecap="round" stroke-linejoin="round"/>
</svg>
