<svg width="16" height="20" viewBox="0 0 16 20" fill="none" xmlns="http://www.w3.org/2000/svg">
<path d="M3.20002 2C2.9173 2 2.64536 2.11226 2.44536 2.31253C2.24533 2.51253 2.13333 2.78373 2.13333 3.06665V17.2709C2.13333 17.6736 2.45868 18 2.86133 18H2.86402C3.08002 18 3.28533 17.9142 3.43733 17.7616C4.14399 17.0555 6.22933 14.9701 7.09068 14.1104C7.33068 13.8691 7.65864 13.7333 8.00002 13.7333C8.34137 13.7333 8.66936 13.8691 8.90933 14.1104C9.77333 14.9728 11.8693 17.0683 12.568 17.768C12.7173 17.9165 12.9173 18 13.128 18C13.536 18 13.8667 17.6696 13.8667 17.2619V3.06665C13.8667 2.78373 13.7547 2.51253 13.5547 2.31253C13.3546 2.11226 13.0827 2 12.8 2H3.20002Z" stroke="white" stroke-width="2.5" stroke-miterlimit="10" stroke-linecap="round" stroke-linejoin="round"/>
</svg>
