<svg width="16" height="16" viewBox="0 0 16 16" fill="none" xmlns="http://www.w3.org/2000/svg">
<path d="M13.4859 7.67137L15 5.37821L13.7711 3.24971L11.0282 3.41433L10.4578 3.08506L9.22889 0.627251H6.77111L5.54222 3.08506L4.97188 3.41433L2.22892 3.24971L1 5.37821L2.51408 7.67137V8.32991L1 10.6231L2.22892 12.7516L4.97188 12.5869L5.54222 12.9162L6.77111 15.374H9.22889L10.4578 12.9162L11.0282 12.5869L13.7711 12.7516L15 10.6231L13.4859 8.32991V7.67137Z" stroke="white" stroke-miterlimit="10" stroke-linecap="round" stroke-linejoin="round"/>
<path d="M10.4571 8.0002C10.4571 9.35759 9.35664 10.458 7.99925 10.458C6.64186 10.458 5.54147 9.35759 5.54147 8.0002C5.54147 6.64281 6.64186 5.5424 7.99925 5.5424C9.35664 5.5424 10.4571 6.64281 10.4571 8.0002Z" stroke="white" stroke-miterlimit="10" stroke-linecap="round" stroke-linejoin="round"/>
</svg>
