<svg width="24" height="13" viewBox="0 0 24 13" fill="none" xmlns="http://www.w3.org/2000/svg">
<path d="M1.28613 5.42382L2.92442 7.80024C4.73713 10.4298 7.72679 12 10.9206 12H13.0651C16.2448 12 19.223 10.4436 21.0385 7.83325L22.7142 5.42382M1.28613 5.42382C1.28613 5.42382 8.00325 5.19991 10.9808 6.38814C11.6501 6.65527 12.3967 6.65452 13.0659 6.38708C16.0358 5.20004 22.7142 5.42382 22.7142 5.42382M1.28613 5.42382C4.90832 3.90409 5.7078 1.00219 9.27913 1.00219C9.27913 1.00219 11.0478 0.86614 12.0002 2.73682C12.9525 0.86614 14.7212 1.00219 14.7212 1.00219C18.2925 1.00219 19.0921 3.90409 22.7142 5.42382" stroke="white" stroke-width="1.5" stroke-miterlimit="10" stroke-linecap="round" stroke-linejoin="round"/>
</svg>
