<svg width="24" height="24" viewBox="0 0 24 24" fill="none" xmlns="http://www.w3.org/2000/svg">
<path d="M21.7594 5.30162H19.9543C19.8849 5.30162 19.8274 5.36133 19.8274 5.43498V9.08967V13.9467H19.8234C19.752 16.1025 18.0798 17.8263 16.0248 17.8263C14.9675 17.8263 14.0114 17.3685 13.3211 16.632C13.3112 16.622 13.3033 16.612 13.2953 16.6021L15.9196 13.1962C16.6794 12.2109 17.0523 11.0325 16.9729 9.87197C16.8876 8.65175 16.3541 7.50518 15.4694 6.64326C15.1778 6.35861 14.8544 6.11576 14.5093 5.91471L15.267 5.05877C15.4991 4.798 15.4753 4.3959 15.2135 4.16102C14.9516 3.92812 14.5529 3.95201 14.3189 4.21277L13.2636 5.40313C12.8569 5.29763 12.4325 5.24389 12 5.24389C11.5676 5.24389 11.1431 5.29963 10.7365 5.40313L9.68119 4.21277C9.4491 3.95002 9.04841 3.92812 8.78658 4.16102C8.52474 4.39391 8.50094 4.79601 8.735 5.05877L9.49274 5.91272C9.1476 6.11377 8.82427 6.35662 8.53267 6.64127C7.64798 7.5012 7.11439 8.64777 7.03108 9.86998C6.95174 11.0285 7.32664 12.2089 8.08438 13.1922L10.7087 16.5981C10.7008 16.6081 10.6908 16.618 10.6829 16.628C9.9946 17.3645 9.03651 17.8223 7.97925 17.8223C5.92423 17.8223 4.25204 16.0985 4.18063 13.9447H4.17666V5.43299C4.17666 5.35934 4.12112 5.29962 4.04971 5.29962H2.24463C2.1752 5.29962 2.11768 5.35934 2.11768 5.43299V13.8014V14.2373C2.11768 14.2632 2.12561 14.2871 2.1395 14.307C2.38348 17.4939 4.90267 20 7.97726 20C9.5344 20 10.9487 19.3551 12 18.306C13.0494 19.3551 14.4637 20 16.0228 20C19.0974 20 21.6166 17.4939 21.8606 14.307C21.8725 14.2871 21.8824 14.2632 21.8824 14.2373V5.431C21.8824 5.35735 21.8268 5.29763 21.7554 5.29763L21.7594 5.30162ZM9.94699 11.9621H14.063L12.006 14.6314L9.94897 11.9621H9.94699ZM13.9261 8.24368C14.3585 8.66369 14.6382 9.20513 14.7315 9.78637H9.27851C9.37174 9.20513 9.65143 8.66369 10.0819 8.24368C10.5917 7.74803 11.274 7.47532 12.004 7.47532C12.734 7.47532 13.4163 7.74803 13.9261 8.24368Z" fill="white"/>
</svg>
